<svg xmlns="http://www.w3.org/2000/svg" xmlns:xlink="http://www.w3.org/1999/xlink" width="500" zoomAndPan="magnify" viewBox="0 0 375 374.999991" height="500" preserveAspectRatio="xMidYMid meet" version="1.0"><defs><clipPath id="7e320bac2a"><path d="M 216.441406 79.589844 L 260.539062 79.589844 L 260.539062 123.6875 L 216.441406 123.6875 Z M 216.441406 79.589844 " clip-rule="nonzero"/></clipPath><clipPath id="bc617ef431"><path d="M 238.488281 79.589844 C 226.3125 79.589844 216.441406 89.460938 216.441406 101.640625 C 216.441406 113.816406 226.3125 123.6875 238.488281 123.6875 C 250.667969 123.6875 260.539062 113.816406 260.539062 101.640625 C 260.539062 89.460938 250.667969 79.589844 238.488281 79.589844 Z M 238.488281 79.589844 " clip-rule="nonzero"/></clipPath></defs><path stroke-linecap="butt" transform="matrix(0.75, 0, 0, 0.75, 93.789102, 315.771337)" fill="none" stroke-linejoin="miter" d="M -0.0000520549 8.497593 L 102.895788 8.497593 " stroke="#000000" stroke-width="17" stroke-opacity="1" stroke-miterlimit="4"/><path stroke-linecap="butt" transform="matrix(0, -0.75, 0.75, 0, 127.030748, 322.142556)" fill="none" stroke-linejoin="miter" d="M 0.00257526 8.50067 L 367.554683 8.50067 " stroke="#000000" stroke-width="17" stroke-opacity="1" stroke-miterlimit="4"/><path stroke-linecap="butt" transform="matrix(0.75, 0, 0, 0.75, 132.375934, 46.606077)" fill="none" stroke-linejoin="miter" d="M -0.00124561 8.49919 L 198.446684 8.49919 " stroke="#000000" stroke-width="17" stroke-opacity="1" stroke-miterlimit="4"/><path stroke-linecap="butt" transform="matrix(0.559801, -0.499122, 0.499122, 0.559801, 132.536158, 108.189046)" fill="none" stroke-linejoin="miter" d="M -0.00300421 8.500657 L 120.144059 8.499458 " stroke="#000000" stroke-width="17" stroke-opacity="1" stroke-miterlimit="4"/><path stroke-linecap="butt" transform="matrix(0, 0.75, -0.75, 0, 239.985706, 52.985116)" fill="none" stroke-linejoin="miter" d="M -0.000987628 2.001775 L 35.478181 2.001775 " stroke="#000000" stroke-width="4" stroke-opacity="1" stroke-miterlimit="4"/><g clip-path="url(#7e320bac2a)"><g clip-path="url(#bc617ef431)"><path stroke-linecap="butt" transform="matrix(0.75, 0, 0, 0.75, 216.440131, 79.590727)" fill="none" stroke-linejoin="miter" d="M 29.397535 -0.00117736 C 13.163159 -0.00117736 0.00170022 13.160282 0.00170022 29.399866 C 0.00170022 45.634242 13.163159 58.795701 29.397535 58.795701 C 45.63712 58.795701 58.798579 45.634242 58.798579 29.399866 C 58.798579 13.160282 45.63712 -0.00117736 29.397535 -0.00117736 Z M 29.397535 -0.00117736 " stroke="#000000" stroke-width="6" stroke-opacity="1" stroke-miterlimit="4"/></g></g><path stroke-linecap="butt" transform="matrix(0, 0.75, -0.75, 0, 240.36217, 123.692541)" fill="none" stroke-linejoin="miter" d="M -0.00151257 2.498519 L 102.852661 2.498519 " stroke="#000000" stroke-width="5" stroke-opacity="1" stroke-miterlimit="4"/><path stroke-linecap="butt" transform="matrix(0.437727, 0.609012, -0.609012, 0.437727, 240.011502, 199.735124)" fill="none" stroke-linejoin="miter" d="M -0.00196407 2.499724 L 72.410937 2.502631 " stroke="#000000" stroke-width="5" stroke-opacity="1" stroke-miterlimit="4"/><path stroke-linecap="butt" transform="matrix(-0.461733, 0.591018, -0.591018, -0.461733, 239.963442, 201.984157)" fill="none" stroke-linejoin="miter" d="M -0.000537363 2.502993 L 74.614884 2.497607 " stroke="#000000" stroke-width="5" stroke-opacity="1" stroke-miterlimit="4"/><path stroke-linecap="butt" transform="matrix(0.452175, 0.598362, -0.598362, 0.452175, 239.983803, 135.518648)" fill="none" stroke-linejoin="miter" d="M -0.000382161 2.49907 L 73.701134 2.50208 " stroke="#000000" stroke-width="5" stroke-opacity="1" stroke-miterlimit="4"/><path stroke-linecap="butt" transform="matrix(-0.447807, 0.601639, -0.601639, -0.447807, 239.992839, 137.765381)" fill="none" stroke-linejoin="miter" d="M -0.00105949 2.501555 L 73.300481 2.500404 " stroke="#000000" stroke-width="5" stroke-opacity="1" stroke-miterlimit="4"/></svg>